<svg xmlns="http://www.w3.org/2000/svg" height="800" width="1200" viewBox="-85.480605 -18.598425 740.83191 111.59055"><path d="M406.6547 57.7245c-2.3693 3.0171-5.8213 4.5286-10.3693 4.526-4.5493-.0026-7.9413-1.5218-10.1733-4.5598-2.24-3.0287-3.3587-7.0782-3.356-12.1459-.0014-4.6953 1.0933-8.6312 3.304-11.7975 2.1866-3.1702 5.648-4.7577 10.3346-4.7572 3.0814-.001 5.7894.8714 8.1254 2.6198 3.7973 2.8817 5.6906 7.6786 5.688 14.3854.008 4.8011-1.184 8.7099-3.5534 11.7292zM412.3987 0v25.5645c-1.6173-1.8905-4.3693-4.09-6.6973-5.2609-2.9-1.4583-7.1707-2.0984-10.8853-2.0984-6.924 0-14.004 2.1104-18.8307 7.4812-4.8307 5.3647-7.8293 11.56-7.8293 20.9172-.004 8.121 2.4493 14.7657 7.3546 19.9516 4.9054 5.1849 10.9414 7.7724 18.128 7.7776 4.364 0 9.1507-.7396 12.08-2.2099 2.4534-1.2396 4.676-2.9385 6.68-5.4229v7.686h15.6187L428.0227 0zM93.9751 52.024c-.1068 4.6604-2.7105 7.8593-5.586 9.616-2.873 1.7642-6.0062 2.6444-9.4145 2.6444-2.1521.0026-3.9688-.5297-5.474-1.587-1.5-1.064-2.2532-2.7777-2.2495-5.1605.0047-2.6666 1.2214-4.6353 3.6834-5.9088 1.4489-.7474 3.8406-1.3812 7.1724-1.8994l3.5473-.5912c1.7765-.288 3.1661-.6031 4.1828-.9468 1.0147-.3386 3.1355-.7891 4.1396-1.3438zm9.0099-30.3308c-5.088-2.3088-10.9141-3.461-17.4704-3.4645-10.0713.0025-17.1781 2.3416-21.315 7.0281-2.598 3.0025-4.0631 6.8317-4.3922 11.4807l15.0348.0016c.373-2.049 1.1224-3.6823 2.2235-4.8818 1.554-1.6266 4.19-2.4412 7.928-2.4354 3.3288-.0052 5.8574.401 7.5736 1.2364 1.7192.8329 2.576 2.337 2.5792 4.5193-.0006 1.7912-1.123 3.1068-3.3604 3.9479-1.2491.4937-3.3292.9037-6.224 1.2256l-5.35.5833c-6.07.6901-10.6563 1.8292-13.787 3.4177-5.6958 2.94-8.5396 7.6786-8.5386 14.2162-.0031 5.051 1.7672 8.9504 5.3084 11.7004 3.5448 2.749 8.0265 4.124 13.4609 4.1172 4.2541.0026 8.0708-.8552 11.439-2.5791 2.822-1.4662 4.75-2.723 6.9162-4.8021l-.0016 7.3828h15.609l.002-39.5995c.0047-6.4177-2.536-10.7828-7.6354-13.0948m127.0377.9855c-4.028-2.974-9.2026-4.4579-15.5226-4.4584-5.0507-.0015-9.2294 1.1094-12.52 3.3188-1.832 1.2448-3.7854 3.274-5.84 6.0958l-.0027-9.4141h-15.5547v56.1563l16.0734.001-.0014-29.6808c.0014-3.3948.5214-6.1776 1.5667-8.3588 2.012-4.1322 5.7213-6.1964 11.1307-6.1932 4.404-.0005 7.3866 1.412 8.9573 4.226.852 1.5454 1.2893 3.7563 1.2853 6.6396l-.0026 33.3672 16.464.0026-.0014-36.938c.0014-6.8771-2.0093-11.7954-6.032-14.764m51.9733 35.8634c-2.4173 2.8647-5.8853 4.2907-10.396 4.2907-4.5146 0-7.984-1.4323-10.4213-4.2943-2.4386-2.8645-3.6613-6.939-3.66-12.2073.0014-5.2823 1.224-9.3468 3.6574-12.1943 2.4426-2.8385 5.9146-4.2724 10.424-4.2708 4.5133 0 7.976 1.4246 10.3986 4.2688 2.412 2.8542 3.6227 6.9099 3.624 12.1875-.0026 5.2812-1.2133 9.3525-3.6266 12.2197zm12.348-31.9692c-4.98-5.5661-12.5453-8.3516-22.6906-8.3541-10.144.002-17.7107 2.7859-22.6827 8.3557-4.98 5.5703-7.4733 12.1526-7.4746 19.7515.0026 7.7265 2.4973 14.3323 7.4706 19.823 4.9787 5.4963 12.548 8.2385 22.6787 8.237 10.1533-.0027 17.716-2.738 22.6933-8.2407 4.98-5.4844 7.4747-12.0953 7.4734-19.8204-.0027-7.5962-2.492-14.1869-7.468-19.752M167.312 22.6797c-4.0226-2.9657-9.196-4.4505-15.5226-4.4526-5.0547-.0036-9.236 1.1088-12.52 3.324-1.8293 1.2396-3.7733 3.2708-5.844 6.0864l.008-9.4063h-15.5588l.003 56.1625 16.0585-.0062V44.7063c-.0067-3.3943.5266-6.1844 1.576-8.3636 2.008-4.1192 5.716-6.1896 11.1333-6.1896 4.396.0048 7.3853 1.4125 8.9533 4.2313.8507 1.5421 1.28 3.753 1.2827 6.641l-.0027 33.3657 16.4667-.0052-.0067-36.9323c.004-6.8807-2.008-11.802-6.0266-14.7739m189.3706-.0057c-4.024-2.961-9.1973-4.4485-15.528-4.45-5.048-.001-9.2213 1.1063-12.5066 3.314-1.836 1.2505-3.7814 3.2817-5.8427 6.0979l-.0013-9.4104h-15.56l.0013 56.1594 16.0627.001-.004-29.6859c.0013-3.4.536-6.176 1.576-8.3645 2.012-4.1215 5.7266-6.1918 11.1266-6.1871 4.4067-.001 7.392 1.4068 8.9614 4.2219.852 1.5516 1.2853 3.7646 1.2893 6.6485l-.004 33.366 16.46-.0015.0027-36.9426c.0026-6.8724-2.008-11.7934-6.0334-14.7667M493.3894.011l.0026 74.375 15.6427-.0063-.0013-74.3672zM27.261 29.9708c3.5339-.011 6.2265.989 7.7964 3.1948 1.1187 1.5719 1.19 2.0328 1.7473 3.5667H52.446c-.8573-7.5635-3.5494-11.0818-8.0928-14.0479-4.5557-2.9813-10.389-4.4704-17.5192-4.4552-8.3874.0181-14.9599 2.5593-19.7125 7.6312C2.3626 30.9396-.014 38.0312.0001 47.1349c.0104 8.0739 2.1828 14.6338 6.5062 19.6885 4.3271 5.0625 11.062 7.585 20.214 7.564 9.1495-.0145 16.0443-3.065 20.6995-9.1395 2.9125-3.777 4.6824-7.7744 5.0261-12l-15.0625.0328c-.3073 2.7917-1.4437 5.0609-2.903 6.8281-1.461 1.7485-3.933 2.6355-7.42 2.6391-4.9109.0052-8.2567-2.1875-10.0447-6.6078-.9744-2.362-1.4735-5.486-1.4807-9.374-.0104-4.0833.473-7.3448 1.4495-9.8098 1.8349-4.6464 5.2697-6.9855 10.2765-6.9855m442.291 22.0417c-.1066 4.6615-2.7106 7.8604-5.5853 9.6156-2.8733 1.7646-6.0066 2.6459-9.416 2.6459-2.152.0026-3.968-.5313-5.4733-1.5886-1.5-1.0635-2.2533-2.7771-2.2493-5.1589.004-2.6666 1.2226-4.6353 3.6826-5.9088 1.4494-.7485 3.8414-1.3828 7.172-1.8994l3.548-.5928c1.7774-.2864 3.1654-.6015 4.1827-.9452 1.016-.3396 3.136-.7902 4.1387-1.3448zm9.0094-30.3302c-5.088-2.3094-10.9133-3.461-17.4693-3.4646-10.072.0026-17.1787 2.3416-21.316 7.0276-2.5974 3.0026-4.0627 6.8323-4.392 11.4812l15.036.0016c.372-2.0489 1.1226-3.6822 2.2226-4.8817 1.5547-1.6261 4.1894-2.4412 7.928-2.4355 3.328-.0052 5.8574.4011 7.5734 1.2364 1.7186.8324 2.576 2.3371 2.5786 4.5194-.0013 1.7912-1.1226 3.1068-3.36 3.9484-1.2493.4922-3.3293.9026-6.224 1.224l-5.3506.5849c-6.0694.6885-10.6547 1.829-13.7867 3.4167-5.6947 2.941-8.5387 7.6796-8.5387 14.2172-.0026 5.051 1.768 8.9504 5.3094 11.6994 3.544 2.75 8.0253 4.125 13.46 4.1182 4.256.0016 8.072-.8568 11.4386-2.5807 2.824-1.4662 4.7507-2.7214 6.9174-4.8005l-.0014 7.3828h15.6093l.0014-39.6006c.004-6.4172-2.536-10.7822-7.636-13.0942m50.22 19.175c.5013-3.4458 1.7333-6.1745 3.6773-8.198 1.956-2.0156 4.7027-3.0244 8.248-3.0238 3.2613.003 5.984.95 8.1893 2.852 2.2027 1.9046 3.432 4.698 3.6787 8.3724zm37.68-1.3776c-.6414-4.1469-2.0494-7.8032-4.2134-10.9412-2.392-3.576-5.4373-6.176-9.1226-7.8333-3.6894-1.6593-7.828-2.485-12.4254-2.4864-7.74.0004-14.0373 2.4468-18.8906 7.3452-4.8467 4.8943-7.2747 11.9303-7.2667 21.1021-.0067 9.785 2.68 16.85 8.0547 21.2006 5.3733 4.3474 11.5773 6.5114 18.6133 6.514 8.5093-.0026 15.1267-2.5781 19.8627-7.7265 3.04-3.2407 4.748-6.423 5.12-9.573l-14.096.0043c-.8254 1.5546-1.768 2.7708-2.8467 3.6468-1.9627 1.6135-4.5307 2.4234-7.6707 2.4193-2.9613.0041-5.5026-.6563-7.6106-1.987-3.468-2.1354-5.3107-5.863-5.5267-11.1703l38.4733-.0052c.0667-4.5678-.0853-8.0823-.4546-10.5094m-.7107-17.9094h.384c.448 0 .8107-.1495.8107-.513 0-.3188-.2334-.5324-.7467-.5324-.212 0-.3627.021-.448.0412zm-.0213 1.9844h-.8107v-3.5c.32-.0635.768-.1068 1.3453-.1068.6614 0 .9587.1068 1.216.2568.1907.1484.3414.427.3414.7682 0 .3839-.2987.6823-.7254.811v.0416c.3414.1292.5334.3844.64.8542.1067.5339.1707.7474.256.875h-.876c-.1066-.1276-.1706-.4479-.2773-.8542-.064-.3844-.2773-.5546-.7253-.5546h-.384zm-2.156-1.8359c0 1.5583 1.1533 2.7968 2.732 2.7968 1.5373 0 2.668-1.2385 2.668-2.7744 0-1.559-1.1307-2.8177-2.6894-2.8177-1.5573 0-2.7106 1.2588-2.7106 2.7953zm6.2973 0c0 1.9859-1.5587 3.5432-3.5867 3.5432-2.0066 0-3.6066-1.5573-3.6066-3.5432 0-1.9417 1.6-3.5 3.6066-3.5 2.028 0 3.5867 1.5583 3.5867 3.5" fill="#231f20"/></svg>