<svg xmlns="http://www.w3.org/2000/svg" xml:space="preserve" viewBox="0 0 100 34" width="82" height="28"><path d="M53.97 5.84c.08-.38.13-.78.14-1.19a3.87 3.87 0 0 0-.53-2.15c-.71-1.09-2.08-1.72-3.3-2a17.03 17.03 0 0 0-4.62-.25c-1.31.07-2.61.28-3.86.7-1.03.35-2.02.84-2.94 1.42a9.81 9.81 0 0 0-4.07 4.62l-8.14 19.43c-.4.99-.7 2.08-.65 3.16.03.57.17 1.15.44 1.66.3.56.76.97 1.29 1.31 1.07.75 2.41 1 3.69 1.1 1.46.11 2.95.08 4.4-.11a13.05 13.05 0 0 0 5.43-1.99 9.81 9.81 0 0 0 4.07-4.62l7.8-18.61c.32-.81.67-1.62.85-2.48zm-7.09 2.19-7.81 18.65s-.9 2.36-4.01 2.35c-.8 0-2.05-.1-2.36-1.01a1.8 1.8 0 0 1 .08-1.14l8.24-19.67s.9-2.36 4.01-2.35c.85 0 2.22.13 2.41 1.18.11.65-.31 1.41-.56 1.99zm17.39 6.42a11.04 11.04 0 0 1-1.66-4.06 5.67 5.67 0 0 1 .5-3.52l.14-.23c.36-.55.89-.99 1.48-1.28a4.83 4.83 0 0 1 1.86-.48l.47-.02c.55 0 1.16.06 1.65.34.37.21.61.55.67.97.06.41-.05.78-.19 1.16l-1.13 2.69h5.73l1.22-2.9c1.17-2.77.7-4.16.34-4.73a2.7 2.7 0 0 0-.27-.32C73.74.7 71.74.35 69.91.24c-3-.19-5.96.42-8.58 1.89a10.74 10.74 0 0 0-2.81 2.27c-.72.84-4.01 5.19-.91 11.3l1.4 2.27a66.56 66.56 0 0 1 1.95 3.36c.55 1.02.94 2.05.78 3.22a5.1 5.1 0 0 1-3.82 4.34c-.83.19-1.76.26-2.58.01-.46-.14-.9-.44-1.1-.88a1.8 1.8 0 0 1-.09-.98c.13-.71 1.27-3.27 1.27-3.27h-5.44l-1.65 3.92a5.42 5.42 0 0 0-.33 2.87c.17.97.76 1.68 1.62 2.16 1.61.88 3.51 1.03 5.31.98 2.5-.07 4.99-.56 7.21-1.74a11.88 11.88 0 0 0 5.32-5.95l.2-.51c1.46-4.17-1.43-7.96-3.39-11.05zM30.26 2.44a3.84 3.84 0 0 0-1.7-1.12C26.57.61 24.48.66 22.4.66h-8.49L.67 32.26c-.18.44.14.92.61.92h5.29L12.08 20l-2.13-1.51h5.35c.37.03.65.37.59.75l-2.11 13.92h6.08l2.27-15.75a12.58 12.58 0 0 0 3.4-1.84 14.2 14.2 0 0 0 5.37-8.5c.3-1.49.39-3.37-.64-4.63zm-5.88 5.61c-.15.9-.52 1.84-1.04 2.7a6.4 6.4 0 0 1-3.85 3.01c-.46.1-.94.13-1.42.13h-3.42l3.58-8.53c0-.02 2.6 0 2.85.01.86.03 2 0 2.74.51.68.45.68 1.43.56 2.17zM96.32.67H81.35L68.09 32.26c-.18.44.14.92.61.92h15.7l1.97-4.66-10.4.01L79.54 20l-2.13-1.51h9.38l1.56-3.73a.67.67 0 0 0-.61-.92h-5.61l3.56-8.5h9.67l1.57-3.75a.66.66 0 0 0-.61-.92z"></path></svg>