<svg xmlns="http://www.w3.org/2000/svg" fill="none" viewBox="0 0 74 74" height="74" width="74">
<g id="LogoBox">
<g id="Vector">
<path fill="#E32728" d="M74 0H0V74H74V0Z"></path>
<path fill="white" d="M57.1981 29.5664L53.327 36.1786H49.9585L53.8296 29.5664H50.1544L46.2833 36.1786H42.2412L41.7012 30.9487L38.6386 36.1786H35.2693L40.205 27.7495H44.2931L44.8261 32.9131L47.8504 27.7495H61.1465L60.0827 29.5664H57.1981ZM35.2193 27.7495H32.0889L22.479 36.1786H35.2193V27.7495ZM31.9 34.3616H27.922L32.0031 30.7824L31.9 34.3616ZM68.0271 27.7495H64.8966L55.2867 36.1786H68.0271V27.7495ZM64.7077 34.3616H60.7297L64.81 30.7824L64.7077 34.3616ZM16.0995 31.0556C15.5157 32.053 15.8443 32.8631 16.8331 32.8725H20.8307L19.9589 34.3616H14.1639L13.0994 36.1786H20.4498C21.4535 36.1786 22.7428 35.3653 23.3297 34.3616H23.3282L24.1991 32.8725H24.2015C24.79 31.8696 24.4528 31.0556 23.4499 31.0556H19.4688L20.3405 29.5664H26.1378L27.2016 27.7495H19.8519C18.849 27.7495 17.5589 28.5635 16.9712 29.5664L16.0995 31.0556ZM45.2273 44.4265C44.6427 45.424 44.9721 46.2333 45.9609 46.2435H52.175C53.1787 46.2435 54.468 45.4294 55.0557 44.4265H55.0526L57.8607 39.6313H63.5566L55.8346 46.2435H65.4484L66.5122 44.4265H62.2251L69.4428 37.8144L55.556 37.8152L51.6849 44.4265H48.595L52.4661 37.8152H49.0976L45.2273 44.4265ZM28.4262 44.4265L31.2343 39.6313H36.0381L37.1019 37.8144H30.7457C29.742 37.8144 28.4527 38.6284 27.865 39.6313L25.0577 44.4265H25.0569L25.0538 44.4328C24.47 45.4294 24.7986 46.2403 25.7874 46.2497H32.1623L33.2307 44.4265H28.4262ZM38.5309 37.8144L33.5944 46.2435H36.9621L38.5902 43.4627H39.2653L40.4157 46.2435H43.9645L42.5659 43.4627H42.5737C43.5766 43.4627 44.8667 42.6494 45.4536 41.6457H45.4521L46.6313 39.6313H46.6337C47.2214 38.6277 46.8842 37.8144 45.8813 37.8144H38.5309ZM42.0828 41.6457H39.6548L40.834 39.6313H43.2629L42.0828 41.6457ZM69.3929 27.8838H69.0284V28.6541H68.8169V27.8838H68.454V27.7495H69.3929V27.8838ZM69.5615 27.7495H69.8705L70.1125 28.2943C70.1445 28.37 70.1609 28.4215 70.1609 28.4215H70.164C70.164 28.4215 70.1796 28.37 70.2116 28.2935L70.4528 27.7495H70.761V28.6541H70.5519V27.922H70.5464C70.5464 27.922 70.5261 27.9922 70.4801 28.096L70.235 28.6541H70.068L69.8268 28.096C69.7816 27.9922 69.7605 27.922 69.7605 27.922H69.7574V28.6541H69.5615V27.7495Z"></path>
</g>
</g>
</svg>
